<svg xmlns:svg="http://www.w3.org/2000/svg" xmlns="http://www.w3.org/2000/svg" viewBox="0 0 50 50" width="50" height="50" version="1.1"><g transform="matrix(2.4932321,0,0,2.6676083,1.0603814,-0.55390771)"><path d="M19 3C18.8 2.8 18.5 2.6 18.3 2.6L4.4 2.6 4.2 1.5C4.2 1 3.7 0.6 3.3 0.6l-2.2 0c-0.6 0-1 0.4-1 1 0 0.6 0.4 1 1 1l1.4 0 1.9 11.2c0 0 0 0.1 0 0.1 0 0.1 0 0.1 0.1 0.2 0 0.1 0.1 0.1 0.1 0.2 0 0 0.1 0.1 0.1 0.1 0.1 0.1 0.1 0.1 0.2 0.1 0 0 0.1 0 0.1 0.1 0.1 0 0.2 0.1 0.4 0.1 0 0 11 0 11 0 0.6 0 1-0.4 1-1 0-0.6-0.4-1-1-1l-10.2 0-0.2-1 11.3 0c0.5 0 0.9-0.4 1-0.9l1-7C19.3 3.5 19.2 3.2 19 3Zm-1.9 1.7-0.3 2-3.6 0 0-2 3.8 0zm-4.8 0 0 2-3 0 0-2 3 0zm0 3 0 2-3 0 0-2 3 0zm-4-3 0 2-3 0c-0.1 0-0.1 0-0.1 0l-0.3-2 3.5 0zm-3 3 3 0 0 2-2.7 0-0.3-2zm8 2 0-2 3.4 0-0.3 2-3.1 0z" fill="#030104"/><circle r="1.5" cy="17.1" cx="6.8" fill="#030104"/><circle r="1.5" cy="17.1" cx="15.8" fill="#030104"/></g></svg>